name analog
datacolumns 19
datarows 46
range 0.2215 0.244
endheader
time	ground_force_vx	ground_force_vy	ground_force_vz	ground_force_px	ground_force_py	ground_force_pz	l_ground_force_vx	l_ground_force_vy	l_ground_force_vz	l_ground_force_px	l_ground_force_py	l_ground_force_pz	ground_torque_x	ground_torque_y	ground_torque_z	l_ground_torque_x	l_ground_torque_y	l_ground_torque_z
0.2215	-0.0	-0.0	-0.0	-0.0	-0.0	-0.0	2.070626974105835	2.226022720336914	-778.0289916992188	-0.0	-0.0	-0.0	-0.0	-0.0	-0.0	249894.046875	-11541.78125	150.3582305908203
0.222	-0.0	-0.0	-0.0	-0.0	-0.0	-0.0	2.10894775390625	1.3731013536453247	-777.0601806640625	-0.0	-0.0	-0.0	-0.0	-0.0	-0.0	249338.9375	-11754.037109375	140.6796417236328
0.2225	-0.0	-0.0	-0.0	-0.0	-0.0	-0.0	2.0990047454833984	0.2065656632184982	-778.957275390625	-0.0	-0.0	-0.0	-0.0	-0.0	-0.0	248744.6875	-12018.5908203125	350.8138732910156
0.223	-0.0	-0.0	-0.0	-0.0	-0.0	-0.0	2.080324411392212	-0.2052635252475738	-777.1376342773438	-0.0	-0.0	-0.0	-0.0	-0.0	-0.0	248011.203125	-12266.693359375	482.7358703613281
0.2235	-0.0	-0.0	-0.0	-0.0	-0.0	-0.0	2.6712801456451416	0.294703871011734	-778.105712890625	-0.0	-0.0	-0.0	-0.0	-0.0	-0.0	247433.84375	-13137.548828125	743.57568359375
0.224	-0.0	-0.0	-0.0	-0.0	-0.0	-0.0	3.124715805053711	-0.1963945925235748	-778.10498046875	-0.0	-0.0	-0.0	-0.0	-0.0	-0.0	247322.0	-13565.26171875	829.6364135742188
0.2245	-0.0	-0.0	-0.0	-0.0	-0.0	-0.0	4.090588092803955	-0.6770283579826355	-781.4414672851562	-0.0	-0.0	-0.0	-0.0	-0.0	-0.0	247145.1875	-14519.09765625	1143.3070068359375
0.225	-0.0	-0.0	-0.0	-0.0	-0.0	-0.0	4.938241004943848	-1.1481819152832031	-782.3711547851562	-0.0	-0.0	-0.0	-0.0	-0.0	-0.0	246819.90625	-15344.59765625	1680.8824462890625
0.2255	-0.0	-0.0	-0.0	-0.0	-0.0	-0.0	5.825101852416992	-2.2572689056396484	-782.7593383789062	-0.0	-0.0	-0.0	-0.0	-0.0	-0.0	246492.859375	-16349.021484375	2195.305419921875
0.226	-0.0	-0.0	-0.0	-0.0	-0.0	-0.0	6.229315757751465	-3.2185306549072266	-782.215087890625	-0.0	-0.0	-0.0	-0.0	-0.0	-0.0	245584.609375	-16662.564453125	2445.87548828125
0.2265	-0.0	-0.0	-0.0	-0.0	-0.0	-0.0	6.850234508514404	-4.700467586517334	-782.2147827148438	-0.0	-0.0	-0.0	-0.0	-0.0	-0.0	244984.65625	-17267.994140625	2736.030517578125
0.227	-0.0	-0.0	-0.0	-0.0	-0.0	-0.0	7.343565940856934	-6.359161376953125	-781.1286010742188	-0.0	-0.0	-0.0	-0.0	-0.0	-0.0	244078.21875	-17745.259765625	2913.931884765625
0.2275	-0.0	-0.0	-0.0	-0.0	-0.0	-0.0	7.145247936248779	-7.624568462371826	-782.7218017578125	-0.0	-0.0	-0.0	-0.0	-0.0	-0.0	242784.703125	-17955.619140625	3117.869384765625
0.228	-0.0	-0.0	-0.0	-0.0	-0.0	-0.0	7.559715747833252	-9.753814697265623	-780.3538818359375	-0.0	-0.0	-0.0	-0.0	-0.0	-0.0	242028.234375	-18478.140625	3113.773193359375
0.2285	-0.0	-0.0	-0.0	-0.0	-0.0	-0.0	7.530804634094238	-11.765924453735352	-778.881591796875	-0.0	-0.0	-0.0	-0.0	-0.0	-0.0	241405.203125	-18123.501953125	3245.390380859375
0.229	-0.0	-0.0	-0.0	-0.0	-0.0	-0.0	7.8665361404418945	-12.725327491760254	-778.7688598632812	-0.0	-0.0	-0.0	-0.0	-0.0	-0.0	240541.1875	-18479.08984375	3192.4228515625
0.2295	-0.0	-0.0	-0.0	-0.0	-0.0	-0.0	7.876158714294434	-14.071674346923828	-776.3252563476562	-0.0	-0.0	-0.0	-0.0	-0.0	-0.0	239835.96875	-18466.57421875	3297.929443359375
0.23	-0.0	-0.0	-0.0	-0.0	-0.0	-0.0	7.974457740783691	-14.847514152526855	-774.7300415039062	-0.0	-0.0	-0.0	-0.0	-0.0	-0.0	239078.5	-18494.689453125	3304.15185546875
0.2305	-0.0	-0.0	-0.0	-0.0	-0.0	-0.0	8.31038761138916	-15.541200637817385	-776.1267700195312	-0.0	-0.0	-0.0	-0.0	-0.0	-0.0	238544.953125	-18423.82421875	3386.831787109375
0.231	-0.0	-0.0	-0.0	-0.0	-0.0	-0.0	8.55770492553711	-16.358325958251953	-774.58154296875	-0.0	-0.0	-0.0	-0.0	-0.0	-0.0	238435.90625	-18456.326171875	3492.809814453125
0.2315	-0.0	-0.0	-0.0	-0.0	-0.0	-0.0	8.459771156311035	-16.348880767822266	-775.6668090820312	-0.0	-0.0	-0.0	-0.0	-0.0	-0.0	238297.203125	-18228.82421875	3397.494384765625
0.232	-0.0	-0.0	-0.0	-0.0	-0.0	-0.0	8.703030586242676	-16.251190185546875	-775.5198364257812	-0.0	-0.0	-0.0	-0.0	-0.0	-0.0	237812.5	-18123.701171875	3416.560546875
0.2325	-0.0	-0.0	-0.0	-0.0	-0.0	-0.0	8.5675630569458	-15.897903442382812	-775.3921508789062	-0.0	-0.0	-0.0	-0.0	-0.0	-0.0	237851.875	-17950.54296875	3516.4501953125
0.233	-0.0	-0.0	-0.0	-0.0	-0.0	-0.0	8.693656921386719	-15.349438667297363	-774.8406982421875	-0.0	-0.0	-0.0	-0.0	-0.0	-0.0	238102.703125	-17833.4453125	3430.8623046875
0.2335	-0.0	-0.0	-0.0	-0.0	-0.0	-0.0	9.188838005065918	-14.615248680114746	-775.5386962890625	-0.0	-0.0	-0.0	-0.0	-0.0	-0.0	238124.84375	-17717.267578125	3222.03955078125
0.234	-0.0	-0.0	-0.0	-0.0	-0.0	-0.0	9.048500061035156	-13.811341285705566	-775.3709716796875	-0.0	-0.0	-0.0	-0.0	-0.0	-0.0	238191.5625	-17237.923828125	3381.539794921875
0.23450000000000001	-0.0	-0.0	-0.0	-0.0	-0.0	-0.0	8.52544116973877	-12.922463417053224	-775.429443359375	-0.0	-0.0	-0.0	-0.0	-0.0	-0.0	237971.765625	-16911.705078125	3339.42529296875
0.23500000000000001	-0.0	-0.0	-0.0	-0.0	-0.0	-0.0	8.29594612121582	-12.605578422546388	-774.9361572265625	-0.0	-0.0	-0.0	-0.0	-0.0	-0.0	237972.046875	-16796.1015625	3280.0771484375
0.23550000000000001	-0.0	-0.0	-0.0	-0.0	-0.0	-0.0	8.195316314697266	-12.462449073791504	-771.2399291992188	-0.0	-0.0	-0.0	-0.0	-0.0	-0.0	237367.390625	-15964.2451171875	3051.952392578125
0.23600000000000002	-0.0	-0.0	-0.0	-0.0	-0.0	-0.0	6.787555694580078	-12.170258522033691	-768.903564453125	-0.0	-0.0	-0.0	-0.0	-0.0	-0.0	236643.765625	-15519.1953125	2609.1259765625
0.23650000000000002	-0.0	-0.0	-0.0	-0.0	-0.0	-0.0	6.209754943847656	-11.488871574401855	-767.1217651367188	-0.0	-0.0	-0.0	-0.0	-0.0	-0.0	236267.921875	-14847.6806640625	2392.154052734375
0.23700000000000002	-0.0	-0.0	-0.0	-0.0	-0.0	-0.0	4.913610458374023	-10.086657524108888	-766.0386962890625	-0.0	-0.0	-0.0	-0.0	-0.0	-0.0	236506.28125	-13866.7265625	2079.896728515625
0.23750000000000002	-0.0	-0.0	-0.0	-0.0	-0.0	-0.0	3.3530001640319824	-8.963985443115234	-765.5122680664062	-0.0	-0.0	-0.0	-0.0	-0.0	-0.0	236470.6875	-12825.248046875	1433.01513671875
0.23800000000000002	-0.0	-0.0	-0.0	-0.0	-0.0	-0.0	2.4659674167633057	-7.064776420593262	-764.64208984375	-0.0	-0.0	-0.0	-0.0	-0.0	-0.0	236833.765625	-12094.7578125	1147.861083984375
0.23850000000000002	-0.0	-0.0	-0.0	-0.0	-0.0	-0.0	1.2770828008651731	-5.41370964050293	-765.34033203125	-0.0	-0.0	-0.0	-0.0	-0.0	-0.0	237897.96875	-11462.3525390625	628.4500732421875
0.23900000000000002	-0.0	-0.0	-0.0	-0.0	-0.0	-0.0	0.1863241195678711	-3.391364812850952	-765.34033203125	-0.0	-0.0	-0.0	-0.0	-0.0	-0.0	238552.125	-10527.9736328125	310.69091796875
0.23950000000000002	-0.0	-0.0	-0.0	-0.0	-0.0	-0.0	-0.5677249431610107	-1.739955186843872	-768.0986328125	-0.0	-0.0	-0.0	-0.0	-0.0	-0.0	240027.28125	-10173.51171875	-72.03136444091797
0.24	-0.0	-0.0	-0.0	-0.0	-0.0	-0.0	-0.9934737682342528	0.1586325466632843	-769.5996704101562	-0.0	-0.0	-0.0	-0.0	-0.0	-0.0	241144.484375	-9446.2958984375	-285.49920654296875
0.2405	-0.0	-0.0	-0.0	-0.0	-0.0	-0.0	-1.1708407402038574	2.1284821033477783	-772.7071533203125	-0.0	-0.0	-0.0	-0.0	-0.0	-0.0	242833.734375	-9041.91015625	-231.7189483642578
0.241	-0.0	-0.0	-0.0	-0.0	-0.0	-0.0	-1.1094262599945068	4.416084289550781	-776.1295776367188	-0.0	-0.0	-0.0	-0.0	-0.0	-0.0	244042.3125	-9049.6748046875	-174.7213897705078
0.2415	-0.0	-0.0	-0.0	-0.0	-0.0	-0.0	-0.9132837057113647	5.9609880447387695	-780.9147338867188	-0.0	-0.0	-0.0	-0.0	-0.0	-0.0	246007.625	-8968.0234375	-76.4569320678711
0.242	-0.0	-0.0	-0.0	-0.0	-0.0	-0.0	-0.7444415092468262	7.729054927825928	-782.5855102539062	-0.0	-0.0	-0.0	-0.0	-0.0	-0.0	247337.5625	-8591.0126953125	-138.17010498046875
0.2425	-0.0	-0.0	-0.0	-0.0	-0.0	-0.0	-1.0385477542877195	7.895120143890381	-785.4889526367188	-0.0	-0.0	-0.0	-0.0	-0.0	-0.0	248221.0	-8660.337890625	57.69881820678711
0.243	-0.0	-0.0	-0.0	-0.0	-0.0	-0.0	-1.2764432430267334	8.4788818359375	-785.6590576171875	-0.0	-0.0	-0.0	-0.0	-0.0	-0.0	248691.25	-8433.6513671875	-1.6376429796218872
0.2435	-0.0	-0.0	-0.0	-0.0	-0.0	-0.0	-1.8800976276397705	8.134142875671387	-786.1880493164062	-0.0	-0.0	-0.0	-0.0	-0.0	-0.0	248578.734375	-8072.77392578125	-64.34101104736328
0.244	-0.0	-0.0	-0.0	-0.0	-0.0	-0.0	-2.1920950412750244	6.917768478393555	-784.7581176757812	-0.0	-0.0	-0.0	-0.0	-0.0	-0.0	248453.359375	-7664.4033203125	-234.25245666503903
